<?xml version="1.0" encoding="utf-8" ?><svg xmlns="http://www.w3.org/2000/svg" width="1024" height="1024" viewBox="0 0 1024 1024"><path fill="#0c98df" d="m509.314 188.161.602-.043c7.835-.49 16.003 2.208 21.84 7.485a29.9 29.9 0 0 1 9.829 21.336c.341 9.935-3.512 17.001-10.088 23.935 5.032 13.277 13.071 30.085 19.066 43.425l27.858 62.865 91.517 207.16 54.842 125.464 14.005 32.067c1.533 3.552 6.87 16.432 8.529 18.782 4.956 7.025 16.943 16.533 23.822 22.515a1167 1167 0 0 1 25.145 22.272c5.316-.015 9.512.402 14.458 2.662a30.29 30.29 0 0 1 15.761 17.202 30.33 30.33 0 0 1-1.356 23.368c-7.561 15.864-25.369 21.351-40.907 13.731-9.68-4.746-12.512-12.408-15.514-21.855-20.995-17.443-45.417-34.115-67.067-51.302-5.508 4.953-14.267 11.479-20.237 16.144l-43.043 33.186c-4.612 12.263-8.831 23.163-23.252 26.46a31.12 31.12 0 0 1-23.614-4.244 30.78 30.78 0 0 1-13.449-20.244 29.13 29.13 0 0 1 5.022-22.381c6.784-9.267 15.069-11.373 25.727-12.987 14.092-12.792 29.676-26.957 44.091-39.316-4.277-8.84-8.688-19.536-12.782-28.616l-37.98-86.328c-13.29 9.968-27.135 21.232-40.274 31.534a4561 4561 0 0 0-47.533 37.233l-.585.233c-2.611-.603-84.221-62.679-91.821-68.927-4.931 12.843-11.763 27.308-17.435 39.951l-33.811 74.626a4237 4237 0 0 1 43.624 39.412c7.538.658 12.772 1.395 19.197 6.157a30.05 30.05 0 0 1 11.674 19.906c1.179 8.144-1.213 17.378-6.313 23.842a28.42 28.42 0 0 1-19.098 10.662c-11.292 1.299-24.843-4.51-29.561-15.34-1.744-4.005-3.003-8.96-6.457-11.806-7.074-5.83-14.529-11.238-21.883-16.714a2466 2466 0 0 1-43.079-32.411c-5.198 4.993-13.8 11.525-19.599 16.136-14.562 11.578-29.295 22.678-43.75 34.427-4.561 14.023-11.11 24.298-27.321 25.652a30.84 30.84 0 0 1-22.609-7.211 30.34 30.34 0 0 1-10.379-21.273c-.82-14.949 10.027-28.592 24.885-30.864 2.67-.409 5.204-.546 7.899-.681 6.959-5.198 44.632-38.52 48.452-44.552 3.468-5.474 5.754-11.961 8.275-17.922a2591 2591 0 0 1 12.304-28.886l48.62-111.241a11472 11472 0 0 1 90.399-203.87c18.819-41.687 38.174-85.415 57.839-126.648-6.095-5.961-10.247-11.397-11.525-20.16a29.72 29.72 0 0 1 5.583-22.251c5.208-6.947 13.008-10.655 21.457-11.757M242.595 780.996c5.347 4.407 7.256 6.454 10.639 12.68 8.757-6.627 54.024-40.243 57.527-45.845.026-5.609 4.856-13.983 7.334-19.405l14.519-32.018 33.531-75.051c6.601-14.7 13.708-29.76 20.071-44.498 28.038 22.489 57.454 43.794 86.387 65.12 13.684 10.086 26.901 20.713 40.619 30.736l4.398-3.28 74.932-58.028c14.035-10.81 31.148-23.087 44.404-34.421 7.636 13.213 18.107 39.133 24.489 53.769a6793 6793 0 0 0 35.049 78.723c1.9 4.269 16.011 33.885 16.026 35.616a196 196 0 0 1-1.583 3.056c3.257 5.151 51.307 39.755 59.655 45.779 3.184-6.198 5.002-8.994 10.421-13.594-9.825-8.5-39.417-32.023-45.288-41.123-3.624-5.616-5.881-12.434-8.504-18.586L714.6 691.631l-49.368-112.512-97.491-220.966c-16.23-36.546-33.702-74.177-49.255-110.827-4.411.687-7.016 1.086-11.551.245-5.598 13.19-12.349 27.093-18.371 40.238l-35.591 77.931a14897 14897 0 0 0-88.922 200.233l-48.177 110.746a3441 3441 0 0 1-17.018 39.022c-3.38 7.679-6.382 16.057-10.89 23.142-6.471 10.171-34.991 33.26-45.371 42.113m392.812 12.772c20.98-15.032 41.416-32.452 62.605-47.925-6.458-13.192-12.859-28.408-18.883-41.919l-29.503-65.92c-3.175-7.149-13.971-33.718-17.718-38.95a425 425 0 0 1-19.122 13.631c5.108 12.214 10.977 25.063 16.65 37.084 13.813 29.269 25.481 60.503 39.577 89.545-14.989 13.443-30.539 27.142-45.324 40.782 6.222 4.553 8.303 6.589 11.718 13.672m-218.49 27.382c8.65-.496 15.234-7.953 14.654-16.597-.579-8.645-8.099-15.156-16.737-14.493-8.521.654-14.925 8.049-14.354 16.576s7.905 15.002 16.437 14.514m383.831-.379c8.397-1.271 14.226-9.035 13.104-17.452-1.121-8.418-8.78-14.385-17.216-13.413a15.573 15.573 0 0 0-10.501 25.041 15.57 15.57 0 0 0 14.613 5.824m-190.004-.307c8.326-1.542 13.876-9.478 12.467-17.828s-9.254-14.026-17.625-12.751a15.507 15.507 0 1 0 5.158 30.579m-382.913.345a15.472 15.472 0 0 0 9.279-25.378 15.47 15.47 0 0 0-14.826-5.061c-8.245 1.686-13.631 9.654-12.122 17.934s9.359 13.835 17.669 12.505M509.189 202.87c-8.392 1.642-13.848 9.795-12.167 18.179s9.862 13.802 18.238 12.08c8.319-1.71 13.693-9.823 12.022-18.15-1.671-8.328-9.757-13.74-18.093-12.109m-98.258 410.217-19.431-14.7c-21.605 49.693-45.133 99.124-66.558 148.659 16.738 11.973 32.819 24.639 49.341 36.886 4.241 3.144 9.336 7.057 13.852 9.762 3.182-5.725 5.66-9.465 10.818-13.699-13.666-12.369-32.074-28.119-44.654-40.883l37.737-84.256c5.708-12.69 12.752-29.657 18.895-41.769"/><path fill="#0c98df" d="M512.123 292.71c1.642 1.393 10.218 21.81 11.72 25.189l21.62 48.503 41.937 92.926a3550 3550 0 0 0 42.76 93.52c-12.956 10.661-29.097 22.266-42.68 32.737l-75.456 58.837c-28.306-19.825-55.026-44.324-83.041-64.772a1002 1002 0 0 1-35.013-26.763c5.339-13.458 13.672-30.244 19.801-43.755l41.757-91.861 36.358-80.338c6.209-13.788 13.263-31.016 20.237-44.223M410.244 549.265c8.861 5.701 17.8 12.676 26.27 19.047a2516 2516 0 0 1 50.271 39.04c5.666 4.472 19.569 16.26 24.885 19.72l61.917-48.094c12.5-9.784 26.623-21.385 39.546-30.263L540.964 389.43c-3.636-8.058-24.992-58.442-29.296-63.104a14056 14056 0 0 1-101.424 222.939"/><path fill="#0c98df" d="M512.189 383.298c1.583 1.356 64.983 143.441 71.199 156.87-17.976 15.06-36.826 29.42-55.061 44.19a413 413 0 0 1-16.478 12.686c-4.882-2.487-18.465-14.059-23.615-18.213a2549 2549 0 0 1-46.835-38.183c3.586-8.661 8.109-18.108 11.94-26.779a4462 4462 0 0 1 32.064-71.427c8.276-18.2 17.873-41.908 26.786-59.144m-54.423 153.505a1136 1136 0 0 1 27.646 21.995c3.761 3.07 24.132 20.394 26.408 21.258l.431-.112c17.536-13.855 36.332-30.299 54.233-43.403-3.599-7.869-53.062-118.73-54.642-120.213-18.212 39.659-34.972 81.463-54.076 120.475"/></svg>